<?xml version="1.0" standalone="no"?>
<!DOCTYPE svg PUBLIC "-//W3C//DTD SVG 20010904//EN"
 "http://www.w3.org/TR/2001/REC-SVG-20010904/DTD/svg10.dtd">
<svg version="1.0" xmlns="http://www.w3.org/2000/svg"
 width="70.000000pt" height="70.000000pt" viewBox="0 0 70.000000 70.000000"
 preserveAspectRatio="xMidYMid meet">
<metadata>
Created by potrace 1.14, written by Peter Selinger 2001-2017
</metadata>
<g transform="translate(0.000000,70.000000) scale(0.100000,-0.100000)"
fill="#000000" stroke="none">
<path d="M0 350 l0 -350 350 0 350 0 0 350 0 350 -350 0 -350 0 0 -350z m260
143 c0 -5 10 -13 23 -18 21 -10 22 -15 25 -164 2 -105 -1 -158 -9 -167 -20
-24 -38 3 -41 59 l-3 52 -60 0 -60 0 -5 -60 c-4 -44 -9 -60 -20 -60 -13 0 -15
27 -18 168 -2 160 -1 169 17 174 10 3 21 13 24 24 6 23 37 26 37 3 0 -9 -9
-18 -20 -21 -17 -4 -20 -14 -20 -57 0 -71 7 -78 71 -74 l54 3 3 63 c2 52 0 62
-13 62 -9 0 -19 9 -22 20 -3 11 -14 20 -24 20 -19 0 -27 29 -12 43 7 7 73 -56
73 -70z m345 67 c13 -22 -17 -40 -66 -40 -51 0 -68 12 -49 35 14 17 105 21
115 5z m-125 -55 c0 -8 -9 -19 -20 -25 -18 -10 -20 -21 -20 -131 0 -100 3
-121 16 -126 8 -3 19 -16 24 -29 8 -20 17 -23 67 -26 44 -2 58 -7 58 -18 0
-11 -14 -16 -52 -18 -44 -3 -54 0 -65 17 -7 12 -23 21 -36 21 -13 0 -32 5 -43
10 -17 10 -19 23 -19 160 0 81 3 155 6 164 8 22 84 23 84 1z"/>
</g>
</svg>
